<mxfile host="app.diagrams.net" modified="2024-03-06T03:03:45.471Z" agent="Mozilla/5.0 (Windows NT 10.0; Win64; x64) AppleWebKit/537.36 (KHTML, like Gecko) Chrome/122.0.0.0 Safari/537.36 Edg/122.0.0.0" etag="0H4BU0m55dFRVDmNrKG4" version="24.0.2" type="github">
  <diagram name="PÃ¡gina-1" id="9ZrezYljH9P2KY_Qv6a6">
    <mxGraphModel dx="1210" dy="613" grid="1" gridSize="10" guides="1" tooltips="1" connect="1" arrows="1" fold="1" page="1" pageScale="1" pageWidth="827" pageHeight="1169" math="0" shadow="0">
      <root>
        <mxCell id="0" />
        <mxCell id="1" parent="0" />
        <mxCell id="FwkTbBhF22E6wd6E680H-2" value="&lt;div class=&quot;text-cell-section-header layout horizontal center&quot; style=&quot;position: relative; display: flex; -webkit-box-orient: horizontal; -webkit-box-direction: normal; flex-direction: row; -webkit-box-align: center; align-items: center; font-family: Roboto, Noto, sans-serif; font-size: 14px; font-style: normal; font-variant-ligatures: normal; font-variant-caps: normal; font-weight: 400; letter-spacing: normal; orphans: 2; text-align: start; text-indent: 0px; text-transform: none; widows: 2; word-spacing: 0px; -webkit-text-stroke-width: 0px; white-space: normal; text-decoration-thickness: initial; text-decoration-style: initial; text-decoration-color: initial;&quot;&gt;&lt;h1 style=&quot;font-weight: 400; margin-bottom: 0.5em; margin-top: 0.5em; font-size: 26px;&quot;&gt;Chemical characteristic Characterization tool&lt;/h1&gt;&lt;/div&gt;&lt;h2 style=&quot;font-weight: 400; margin-bottom: 0.5em; margin-top: 0.5em; font-size: 23px; font-family: Roboto, Noto, sans-serif; font-style: normal; font-variant-ligatures: normal; font-variant-caps: normal; letter-spacing: normal; orphans: 2; text-align: start; text-indent: 0px; text-transform: none; widows: 2; word-spacing: 0px; -webkit-text-stroke-width: 0px; white-space: normal; text-decoration-thickness: initial; text-decoration-style: initial; text-decoration-color: initial;&quot;&gt;Composition&lt;/h2&gt;&lt;ul style=&quot;margin-bottom: 6px; margin-top: 0.5em; font-size: 16px; font-family: Roboto, Noto, sans-serif; font-style: normal; font-variant-ligatures: normal; font-variant-caps: normal; font-weight: 400; letter-spacing: normal; orphans: 2; text-align: start; text-indent: 0px; text-transform: none; widows: 2; word-spacing: 0px; -webkit-text-stroke-width: 0px; white-space: normal; text-decoration-thickness: initial; text-decoration-style: initial; text-decoration-color: initial;&quot;&gt;&lt;li&gt;X-ray diffraction (XRD)&lt;/li&gt;&lt;li&gt;X-ray fluorescence (XRF)&lt;/li&gt;&lt;li&gt;Neutron activation analysis (NAA)&lt;/li&gt;&lt;li&gt;Mass spectrometry (Mass Spec)&lt;/li&gt;&lt;/ul&gt;&lt;h2 style=&quot;font-weight: 400; margin-bottom: 0.5em; margin-top: 0.5em; font-size: 23px; font-family: Roboto, Noto, sans-serif; font-style: normal; font-variant-ligatures: normal; font-variant-caps: normal; letter-spacing: normal; orphans: 2; text-align: start; text-indent: 0px; text-transform: none; widows: 2; word-spacing: 0px; -webkit-text-stroke-width: 0px; white-space: normal; text-decoration-thickness: initial; text-decoration-style: initial; text-decoration-color: initial;&quot;&gt;Elemental distribution/local chemistry&lt;/h2&gt;&lt;ul style=&quot;margin-bottom: 6px; margin-top: 0.5em; font-size: 16px; font-family: Roboto, Noto, sans-serif; font-style: normal; font-variant-ligatures: normal; font-variant-caps: normal; font-weight: 400; letter-spacing: normal; orphans: 2; text-align: start; text-indent: 0px; text-transform: none; widows: 2; word-spacing: 0px; -webkit-text-stroke-width: 0px; white-space: normal; text-decoration-thickness: initial; text-decoration-style: initial; text-decoration-color: initial;&quot;&gt;&lt;li&gt;Scanning electron microscope (SEM) with X-ray energy dispersive spectroscopy (XEDS)&lt;/li&gt;&lt;li&gt;Electron probe microanalysis (EPMA)&lt;/li&gt;&lt;li&gt;Transmission electron microscopy (TEM) with XEDS&lt;/li&gt;&lt;li&gt;TEM with electron energy-loss spectroscopy (EELS)&lt;/li&gt;&lt;/ul&gt;&lt;h2 style=&quot;font-weight: 400; margin-bottom: 0.5em; margin-top: 0.5em; font-size: 23px; font-family: Roboto, Noto, sans-serif; font-style: normal; font-variant-ligatures: normal; font-variant-caps: normal; letter-spacing: normal; orphans: 2; text-align: start; text-indent: 0px; text-transform: none; widows: 2; word-spacing: 0px; -webkit-text-stroke-width: 0px; white-space: normal; text-decoration-thickness: initial; text-decoration-style: initial; text-decoration-color: initial;&quot;&gt;Surface/interface chemistry&lt;/h2&gt;&lt;ul style=&quot;margin-bottom: 6px; margin-top: 0.5em; font-size: 16px; font-family: Roboto, Noto, sans-serif; font-style: normal; font-variant-ligatures: normal; font-variant-caps: normal; font-weight: 400; letter-spacing: normal; orphans: 2; text-align: start; text-indent: 0px; text-transform: none; widows: 2; word-spacing: 0px; -webkit-text-stroke-width: 0px; white-space: normal; text-decoration-thickness: initial; text-decoration-style: initial; text-decoration-color: initial;&quot;&gt;&lt;li&gt;X-ray photoelectron spectroscopy (XPS,ESCA)&lt;/li&gt;&lt;li&gt;Auger electron spectroscopy (AES)&lt;/li&gt;&lt;li&gt;Secondary ion mass spectroscopy(SIMS)&lt;/li&gt;&lt;li&gt;Rutherford backscattering spectrometry (RBS)&lt;/li&gt;&lt;li&gt;Ultraviolet photoelectron spectroscopy (UPS)&lt;/li&gt;&lt;li&gt;Infrared (IR) spectroscopy&amp;nbsp;&lt;/li&gt;&lt;li&gt;Raman spectroscopy&lt;/li&gt;&lt;/ul&gt;&lt;h2 style=&quot;font-weight: 400; margin-bottom: 0.5em; margin-top: 0.5em; font-size: 23px; font-family: Roboto, Noto, sans-serif; font-style: normal; font-variant-ligatures: normal; font-variant-caps: normal; letter-spacing: normal; orphans: 2; text-align: start; text-indent: 0px; text-transform: none; widows: 2; word-spacing: 0px; -webkit-text-stroke-width: 0px; white-space: normal; text-decoration-thickness: initial; text-decoration-style: initial; text-decoration-color: initial;&quot;&gt;Phase changes (e.g., decomposition and dehydration)&lt;/h2&gt;&lt;ul style=&quot;margin-bottom: 6px; margin-top: 0.5em; font-size: 16px; font-family: Roboto, Noto, sans-serif; font-style: normal; font-variant-ligatures: normal; font-variant-caps: normal; font-weight: 400; letter-spacing: normal; orphans: 2; text-align: start; text-indent: 0px; text-transform: none; widows: 2; word-spacing: 0px; -webkit-text-stroke-width: 0px; white-space: normal; text-decoration-thickness: initial; text-decoration-style: initial; text-decoration-color: initial;&quot;&gt;&lt;li&gt;Thermomechanical analysis (TMA)&lt;/li&gt;&lt;li&gt;Thermogravimetric analysis (TGA)&lt;/li&gt;&lt;li&gt;Differential thermal analysis (DTA)&lt;/li&gt;&lt;li&gt;Differential scanning calorimetry (DSC)&lt;/li&gt;&lt;li&gt;Mass Spec (MS)&lt;/li&gt;&lt;li&gt;In situ XRD&lt;/li&gt;&lt;/ul&gt;&lt;h1 style=&quot;font-weight: 400; margin-bottom: 0.5em; margin-top: 0.5em; font-size: 26px; font-family: Roboto, Noto, sans-serif; font-style: normal; font-variant-ligatures: normal; font-variant-caps: normal; letter-spacing: normal; orphans: 2; text-align: start; text-indent: 0px; text-transform: none; widows: 2; word-spacing: 0px; -webkit-text-stroke-width: 0px; white-space: normal; text-decoration-thickness: initial; text-decoration-style: initial; text-decoration-color: initial;&quot;&gt;Physical characteristic Characterization tool&lt;/h1&gt;&lt;h2 style=&quot;font-weight: 400; margin-bottom: 0.5em; margin-top: 0.5em; font-size: 23px; font-family: Roboto, Noto, sans-serif; font-style: normal; font-variant-ligatures: normal; font-variant-caps: normal; letter-spacing: normal; orphans: 2; text-align: start; text-indent: 0px; text-transform: none; widows: 2; word-spacing: 0px; -webkit-text-stroke-width: 0px; white-space: normal; text-decoration-thickness: initial; text-decoration-style: initial; text-decoration-color: initial;&quot;&gt;Surface area/porosity&lt;/h2&gt;&lt;ul style=&quot;margin-bottom: 6px; margin-top: 0.5em; font-size: 16px; font-family: Roboto, Noto, sans-serif; font-style: normal; font-variant-ligatures: normal; font-variant-caps: normal; font-weight: 400; letter-spacing: normal; orphans: 2; text-align: start; text-indent: 0px; text-transform: none; widows: 2; word-spacing: 0px; -webkit-text-stroke-width: 0px; white-space: normal; text-decoration-thickness: initial; text-decoration-style: initial; text-decoration-color: initial;&quot;&gt;&lt;li&gt;Small angle neutron scattering (SANS)&lt;/li&gt;&lt;li&gt;Small angle X-ray scattering (SAXS)&lt;/li&gt;&lt;li&gt;Mercury porosimetry&lt;/li&gt;&lt;li&gt;Density homogeneity&lt;/li&gt;&lt;li&gt;VLM&lt;/li&gt;&lt;li&gt;SEM&lt;/li&gt;&lt;li&gt;X-ray radiography/CTscan&lt;/li&gt;&lt;li&gt;Ultrasonography&lt;/li&gt;&lt;li&gt;Die penetration&lt;/li&gt;&lt;/ul&gt;&lt;h2 style=&quot;font-weight: 400; margin-bottom: 0.5em; margin-top: 0.5em; font-size: 23px; font-family: Roboto, Noto, sans-serif; font-style: normal; font-variant-ligatures: normal; font-variant-caps: normal; letter-spacing: normal; orphans: 2; text-align: start; text-indent: 0px; text-transform: none; widows: 2; word-spacing: 0px; -webkit-text-stroke-width: 0px; white-space: normal; text-decoration-thickness: initial; text-decoration-style: initial; text-decoration-color: initial;&quot;&gt;Particle/grain size,distribution, morphology,texture&lt;/h2&gt;&lt;ul style=&quot;margin-bottom: 6px; margin-top: 0.5em; font-size: 16px; font-family: Roboto, Noto, sans-serif; font-style: normal; font-variant-ligatures: normal; font-variant-caps: normal; font-weight: 400; letter-spacing: normal; orphans: 2; text-align: start; text-indent: 0px; text-transform: none; widows: 2; word-spacing: 0px; -webkit-text-stroke-width: 0px; white-space: normal; text-decoration-thickness: initial; text-decoration-style: initial; text-decoration-color: initial;&quot;&gt;&lt;li&gt;VLM and quantitative stereology&lt;/li&gt;&lt;li&gt;SEMand quantitative stereology&lt;/li&gt;&lt;li&gt;Electron backscattering spectroscopy (EBSD)&lt;/li&gt;&lt;li&gt;TEM&lt;/li&gt;&lt;li&gt;XRD&lt;/li&gt;&lt;/ul&gt;&lt;h2 style=&quot;font-weight: 400; margin-bottom: 0.5em; margin-top: 0.5em; font-size: 23px; font-family: Roboto, Noto, sans-serif; font-style: normal; font-variant-ligatures: normal; font-variant-caps: normal; letter-spacing: normal; orphans: 2; text-align: start; text-indent: 0px; text-transform: none; widows: 2; word-spacing: 0px; -webkit-text-stroke-width: 0px; white-space: normal; text-decoration-thickness: initial; text-decoration-style: initial; text-decoration-color: initial;&quot;&gt;Phase identification/molecular structure&lt;/h2&gt;&lt;ul style=&quot;margin-bottom: 6px; margin-top: 0.5em; font-size: 16px; font-family: Roboto, Noto, sans-serif; font-style: normal; font-variant-ligatures: normal; font-variant-caps: normal; font-weight: 400; letter-spacing: normal; orphans: 2; text-align: start; text-indent: 0px; text-transform: none; widows: 2; word-spacing: 0px; -webkit-text-stroke-width: 0px; white-space: normal; text-decoration-thickness: initial; text-decoration-style: initial; text-decoration-color: initial;&quot;&gt;&lt;li&gt;XRD&lt;/li&gt;&lt;li&gt;EBSD&lt;/li&gt;&lt;li&gt;FTIR&lt;/li&gt;&lt;li&gt;Raman spectroscopy&lt;/li&gt;&lt;li&gt;EXAFS&lt;/li&gt;&lt;li&gt;Neutron diffraction&lt;/li&gt;&lt;li&gt;MÃ¶ossbauer spectroscopy&lt;/li&gt;&lt;li&gt;Nuclear magnetic resonance (NMR)&lt;/li&gt;&lt;/ul&gt;&lt;h2 style=&quot;font-weight: 400; margin-bottom: 0.5em; margin-top: 0.5em; font-size: 23px; font-family: Roboto, Noto, sans-serif; font-style: normal; font-variant-ligatures: normal; font-variant-caps: normal; letter-spacing: normal; orphans: 2; text-align: start; text-indent: 0px; text-transform: none; widows: 2; word-spacing: 0px; -webkit-text-stroke-width: 0px; white-space: normal; text-decoration-thickness: initial; text-decoration-style: initial; text-decoration-color: initial;&quot;&gt;Phase transitions (e.g.,structural transformations)&lt;/h2&gt;&lt;ul style=&quot;margin-bottom: 6px; margin-top: 0.5em; font-size: 16px; font-family: Roboto, Noto, sans-serif; font-style: normal; font-variant-ligatures: normal; font-variant-caps: normal; font-weight: 400; letter-spacing: normal; orphans: 2; text-align: start; text-indent: 0px; text-transform: none; widows: 2; word-spacing: 0px; -webkit-text-stroke-width: 0px; white-space: normal; text-decoration-thickness: initial; text-decoration-style: initial; text-decoration-color: initial;&quot;&gt;&lt;li&gt;DTA&lt;/li&gt;&lt;li&gt;DSC&lt;/li&gt;&lt;li&gt;TMA&lt;/li&gt;&lt;li&gt;In situ XRD&lt;/li&gt;&lt;/ul&gt;" style="text;whiteSpace=wrap;html=1;labelBackgroundColor=default;fontColor=#000000;" vertex="1" parent="1">
          <mxGeometry y="80" width="560" height="1560" as="geometry" />
        </mxCell>
        <mxCell id="FwkTbBhF22E6wd6E680H-3" value="Composition" style="rounded=1;whiteSpace=wrap;html=1;fillColor=#fff2cc;strokeColor=#d6b656;" vertex="1" parent="1">
          <mxGeometry x="710" y="50" width="120" height="60" as="geometry" />
        </mxCell>
        <mxCell id="FwkTbBhF22E6wd6E680H-4" value="&lt;span style=&quot;font-family: Roboto, Noto, sans-serif; font-size: 16px; text-align: start; background-color: initial;&quot;&gt;X-ray diffraction (XRD)&lt;/span&gt;" style="rounded=1;whiteSpace=wrap;html=1;" vertex="1" parent="1">
          <mxGeometry x="570" y="150" width="180" height="20" as="geometry" />
        </mxCell>
        <mxCell id="FwkTbBhF22E6wd6E680H-5" value="&lt;span style=&quot;font-family: Roboto, Noto, sans-serif; font-size: 16px; text-align: start; background-color: initial;&quot;&gt;X-ray fluorescence (XRF)&lt;/span&gt;" style="rounded=1;whiteSpace=wrap;html=1;" vertex="1" parent="1">
          <mxGeometry x="570" y="180" width="190" height="25" as="geometry" />
        </mxCell>
        <mxCell id="FwkTbBhF22E6wd6E680H-7" value="&lt;span style=&quot;font-family: Roboto, Noto, sans-serif; font-size: 16px; text-align: start; background-color: initial;&quot;&gt;Neutron activation analysis (NAA)&lt;/span&gt;" style="rounded=1;whiteSpace=wrap;html=1;" vertex="1" parent="1">
          <mxGeometry x="570" y="210" width="245" height="30" as="geometry" />
        </mxCell>
        <mxCell id="FwkTbBhF22E6wd6E680H-8" value="&lt;span style=&quot;font-family: Roboto, Noto, sans-serif; font-size: 16px; text-align: start; background-color: initial;&quot;&gt;Mass spectrometry (Mass Spec)&lt;/span&gt;" style="rounded=1;whiteSpace=wrap;html=1;" vertex="1" parent="1">
          <mxGeometry x="570" y="250" width="240" height="30" as="geometry" />
        </mxCell>
        <mxCell id="FwkTbBhF22E6wd6E680H-10" value="&lt;h2 style=&quot;font-weight: 400; margin-bottom: 0.5em; margin-top: 0.5em; font-size: 23px; font-family: Roboto, Noto, sans-serif;&quot;&gt;Elemental distribution/local chemistry&lt;/h2&gt;&lt;div&gt;&lt;br&gt;&lt;/div&gt;&lt;ul style=&quot;margin-bottom: 6px; margin-top: 0.5em; font-size: 16px; font-family: Roboto, Noto, sans-serif;&quot;&gt;&lt;/ul&gt;" style="rounded=1;whiteSpace=wrap;html=1;align=center;fillColor=#d5e8d4;strokeColor=#82b366;" vertex="1" parent="1">
          <mxGeometry x="600" y="300" width="400" height="80" as="geometry" />
        </mxCell>
        <mxCell id="FwkTbBhF22E6wd6E680H-11" value="&lt;span style=&quot;font-family: Roboto, Noto, sans-serif; font-size: 16px; text-align: start; background-color: initial;&quot;&gt;Scanning electron microscope (SEM) with X-ray energy dispersive spectroscopy (XEDS)&lt;/span&gt;" style="rounded=1;whiteSpace=wrap;html=1;" vertex="1" parent="1">
          <mxGeometry x="580" y="400" width="260" height="60" as="geometry" />
        </mxCell>
        <mxCell id="FwkTbBhF22E6wd6E680H-12" value="&lt;span style=&quot;font-family: Roboto, Noto, sans-serif; font-size: 16px; text-align: start; background-color: initial;&quot;&gt;Electron probe microanalysis (EPMA)&lt;/span&gt;" style="rounded=1;whiteSpace=wrap;html=1;" vertex="1" parent="1">
          <mxGeometry x="590" y="470" width="190" height="80" as="geometry" />
        </mxCell>
        <mxCell id="FwkTbBhF22E6wd6E680H-13" value="&lt;span style=&quot;font-family: Roboto, Noto, sans-serif; font-size: 16px; text-align: start; background-color: initial;&quot;&gt;Transmission electron microscopy (TEM) with XEDS&lt;/span&gt;" style="rounded=1;whiteSpace=wrap;html=1;" vertex="1" parent="1">
          <mxGeometry x="595" y="560" width="190" height="60" as="geometry" />
        </mxCell>
        <mxCell id="FwkTbBhF22E6wd6E680H-14" value="&lt;span style=&quot;font-family: Roboto, Noto, sans-serif; font-size: 16px; text-align: start; background-color: initial;&quot;&gt;TEM with electron energy-loss spectroscopy (EELS)&lt;/span&gt;" style="rounded=1;whiteSpace=wrap;html=1;" vertex="1" parent="1">
          <mxGeometry x="590" y="630" width="230" height="60" as="geometry" />
        </mxCell>
        <mxCell id="FwkTbBhF22E6wd6E680H-15" value="&lt;h2 style=&quot;font-weight: 400; margin-bottom: 0.5em; margin-top: 0.5em; font-size: 23px; font-family: Roboto, Noto, sans-serif; text-align: start;&quot;&gt;Surface/interface chemistry&lt;/h2&gt;" style="rounded=1;whiteSpace=wrap;html=1;fillColor=#ffe6cc;strokeColor=#d79b00;" vertex="1" parent="1">
          <mxGeometry x="620" y="720" width="290" height="60" as="geometry" />
        </mxCell>
        <mxCell id="FwkTbBhF22E6wd6E680H-16" value="&lt;span style=&quot;font-family: Roboto, Noto, sans-serif; font-size: 16px; text-align: start; background-color: initial;&quot;&gt;X-ray photoelectron spectroscopy (XPS,ESCA)&lt;/span&gt;" style="rounded=1;whiteSpace=wrap;html=1;" vertex="1" parent="1">
          <mxGeometry x="570" y="810" width="330" height="40" as="geometry" />
        </mxCell>
        <mxCell id="FwkTbBhF22E6wd6E680H-17" value="&lt;span style=&quot;font-family: Roboto, Noto, sans-serif; font-size: 16px; text-align: start; background-color: initial;&quot;&gt;Auger electron spectroscopy (AES)&lt;/span&gt;" style="rounded=1;whiteSpace=wrap;html=1;" vertex="1" parent="1">
          <mxGeometry x="570" y="870" width="250" height="40" as="geometry" />
        </mxCell>
        <mxCell id="FwkTbBhF22E6wd6E680H-18" value="&lt;span style=&quot;font-family: Roboto, Noto, sans-serif; font-size: 16px; text-align: start; background-color: initial;&quot;&gt;Secondary ion mass spectroscopy(SIMS)&lt;/span&gt;" style="rounded=1;whiteSpace=wrap;html=1;" vertex="1" parent="1">
          <mxGeometry x="570" y="940" width="300" height="40" as="geometry" />
        </mxCell>
        <mxCell id="FwkTbBhF22E6wd6E680H-19" value="&lt;span style=&quot;font-family: Roboto, Noto, sans-serif; font-size: 16px; text-align: start; background-color: initial;&quot;&gt;Rutherford backscattering spectrometry (RBS)&lt;/span&gt;" style="rounded=1;whiteSpace=wrap;html=1;" vertex="1" parent="1">
          <mxGeometry x="570" y="1000" width="370" height="31" as="geometry" />
        </mxCell>
        <mxCell id="FwkTbBhF22E6wd6E680H-20" value="&lt;span style=&quot;font-family: Roboto, Noto, sans-serif; font-size: 16px; text-align: start; background-color: initial;&quot;&gt;Ultraviolet photoelectron spectroscopy (UPS)&lt;/span&gt;" style="rounded=1;whiteSpace=wrap;html=1;" vertex="1" parent="1">
          <mxGeometry x="570" y="1050" width="340" height="30" as="geometry" />
        </mxCell>
        <mxCell id="FwkTbBhF22E6wd6E680H-21" value="&lt;span style=&quot;font-family: Roboto, Noto, sans-serif; font-size: 16px; text-align: start; background-color: initial;&quot;&gt;Infrared (IR) spectroscopy&amp;nbsp;&lt;/span&gt;" style="rounded=1;whiteSpace=wrap;html=1;" vertex="1" parent="1">
          <mxGeometry x="570" y="1090" width="200" height="30" as="geometry" />
        </mxCell>
        <mxCell id="FwkTbBhF22E6wd6E680H-23" value="&lt;span style=&quot;font-family: Roboto, Noto, sans-serif; font-size: 16px; text-align: start; background-color: initial;&quot;&gt;Raman spectroscopy&lt;/span&gt;" style="rounded=1;whiteSpace=wrap;html=1;" vertex="1" parent="1">
          <mxGeometry x="570" y="1130" width="170" height="50" as="geometry" />
        </mxCell>
        <mxCell id="FwkTbBhF22E6wd6E680H-24" value="&lt;h2 style=&quot;font-weight: 400; margin-bottom: 0.5em; margin-top: 0.5em; font-size: 23px; font-family: Roboto, Noto, sans-serif; text-align: start;&quot;&gt;Phase changes (e.g., decomposition and dehydration)&lt;/h2&gt;" style="rounded=1;whiteSpace=wrap;html=1;fillColor=#e1d5e7;strokeColor=#9673a6;" vertex="1" parent="1">
          <mxGeometry x="570" y="1200" width="560" height="60" as="geometry" />
        </mxCell>
        <mxCell id="FwkTbBhF22E6wd6E680H-32" value="" style="edgeStyle=orthogonalEdgeStyle;rounded=0;orthogonalLoop=1;jettySize=auto;html=1;" edge="1" parent="1" source="FwkTbBhF22E6wd6E680H-25" target="FwkTbBhF22E6wd6E680H-31">
          <mxGeometry relative="1" as="geometry" />
        </mxCell>
        <mxCell id="FwkTbBhF22E6wd6E680H-25" value="&lt;span style=&quot;font-family: Roboto, Noto, sans-serif; font-size: 16px; text-align: start; background-color: initial;&quot;&gt;Thermomechanical analysis (TMA)&lt;/span&gt;" style="rounded=1;whiteSpace=wrap;html=1;" vertex="1" parent="1">
          <mxGeometry x="575" y="1290" width="260" height="30" as="geometry" />
        </mxCell>
        <mxCell id="FwkTbBhF22E6wd6E680H-26" value="&lt;span style=&quot;font-family: Roboto, Noto, sans-serif; font-size: 16px; text-align: start; background-color: initial;&quot;&gt;Thermogravimetric analysis (TGA)&lt;/span&gt;" style="rounded=1;whiteSpace=wrap;html=1;" vertex="1" parent="1">
          <mxGeometry x="575" y="1350" width="250" height="50" as="geometry" />
        </mxCell>
        <mxCell id="FwkTbBhF22E6wd6E680H-27" value="&lt;span style=&quot;font-family: Roboto, Noto, sans-serif; font-size: 16px; text-align: start; background-color: initial;&quot;&gt;Differential thermal analysis (DTA)&lt;/span&gt;" style="rounded=1;whiteSpace=wrap;html=1;" vertex="1" parent="1">
          <mxGeometry x="575" y="1420" width="260" height="30" as="geometry" />
        </mxCell>
        <mxCell id="FwkTbBhF22E6wd6E680H-28" value="&lt;span style=&quot;font-family: Roboto, Noto, sans-serif; font-size: 16px; text-align: start; background-color: initial;&quot;&gt;Differential scanning calorimetry (DSC)&lt;/span&gt;" style="rounded=1;whiteSpace=wrap;html=1;" vertex="1" parent="1">
          <mxGeometry x="575" y="1470" width="280" height="40" as="geometry" />
        </mxCell>
        <mxCell id="FwkTbBhF22E6wd6E680H-29" value="&lt;span style=&quot;font-family: Roboto, Noto, sans-serif; font-size: 16px; text-align: start; background-color: initial;&quot;&gt;Mass Spec (MS)&lt;/span&gt;" style="rounded=1;whiteSpace=wrap;html=1;" vertex="1" parent="1">
          <mxGeometry x="575" y="1520" width="130" height="30" as="geometry" />
        </mxCell>
        <mxCell id="FwkTbBhF22E6wd6E680H-30" value="&lt;span style=&quot;font-family: Roboto, Noto, sans-serif; font-size: 16px; text-align: start; background-color: initial;&quot;&gt;In situ XRD&lt;/span&gt;" style="rounded=1;whiteSpace=wrap;html=1;" vertex="1" parent="1">
          <mxGeometry x="575" y="1560" width="100" height="30" as="geometry" />
        </mxCell>
        <mxCell id="FwkTbBhF22E6wd6E680H-31" value="" style="rounded=1;whiteSpace=wrap;html=1;" vertex="1" parent="1">
          <mxGeometry x="970" y="1275" width="120" height="60" as="geometry" />
        </mxCell>
        <mxCell id="FwkTbBhF22E6wd6E680H-33" value="" style="rounded=1;whiteSpace=wrap;html=1;" vertex="1" parent="1">
          <mxGeometry x="970" y="1370" width="100" height="30" as="geometry" />
        </mxCell>
      </root>
    </mxGraphModel>
  </diagram>
</mxfile>
